<?xml version="1.0" encoding="utf-8"?>
<!-- Generator: Adobe Illustrator 23.0.0, SVG Export Plug-In . SVG Version: 6.00 Build 0)  -->
<svg version="1.1" id="Capa_1" xmlns="http://www.w3.org/2000/svg" xmlns:xlink="http://www.w3.org/1999/xlink" x="0px" y="0px"
	 viewBox="0 0 370.1 147.6" style="enable-background:new 0 0 370.1 147.6;" xml:space="preserve">
<style type="text/css">
	.st0{fill:url(#SVGID_1_);}
	.st1{fill:url(#SVGID_2_);}
	.st2{fill:url(#SVGID_3_);}
	.st3{fill:url(#SVGID_4_);}
	.st4{fill:url(#SVGID_5_);}
	.st5{fill:#3C3C3B;}
	.st6{fill:#1D1D1B;}
</style>
<g>
	<g>
		
			<linearGradient id="SVGID_1_" gradientUnits="userSpaceOnUse" x1="25.6064" y1="204.8071" x2="165.0463" y2="39.0371" gradientTransform="matrix(1 0 0 -1 0 162.9434)">
			<stop  offset="0.31" style="stop-color:#243359"/>
			<stop  offset="0.4" style="stop-color:#502D4C"/>
			<stop  offset="0.49" style="stop-color:#792940"/>
			<stop  offset="0.59" style="stop-color:#9C2537"/>
			<stop  offset="0.68" style="stop-color:#B6212F"/>
			<stop  offset="0.78" style="stop-color:#C91F2A"/>
			<stop  offset="0.89" style="stop-color:#D51E27"/>
			<stop  offset="0.99" style="stop-color:#D91E26"/>
		</linearGradient>
		<path class="st0" d="M54.7,45.1c0.4-1.4,0.7-2.9,1.2-4.3c2.2-5.3,6.2-8.6,11.8-10c0.7-0.2,0.9-0.4,1-1c0.6-5.9,2.7-11.2,6.4-15.8
			C79.9,8,86.8,4.1,94.3,2.9c8.2-1.2,15.7,0.7,22.5,5.6c5.5,4,9.2,9.4,11.1,15.9c0.2,0.8,0.6,1.1,1.4,1.4c7.1,2,12.6,8.7,13.5,15.9
			c1.1,8.6-3.7,16.7-11.3,20.1c-2.3,1-4.6,1.6-7.1,1.6c-3,0-6,0-9,0c-1.5,0-2.8-1.3-2.8-2.8V58c0.3,0,0.6,0,0.9,0c3.2,0,6.5,0,9.7,0
			c6.9,0,12.4-4.5,13.8-11.3c1.5-7.4-3.6-14.3-11.1-15.9c-1.7-0.4-2.7-1.3-3.1-3.1c-1.9-7.8-6.4-13.5-13.4-16.8
			c-8-3.7-17.2-3.1-24.5,1.8c-5.7,3.8-9.2,9.1-10.5,15.8c-0.3,1.3-0.3,2.7-0.4,4c-0.1,2.4-1,3.3-3.3,3.4c-0.4,0-0.8,0.1-1.3,0.1
			c-5.1,0.6-9.3,5.4-9.3,10.9s4.1,10.3,9.3,10.8C71,58,72.5,58,74,58c2.8,0,5.5,0,8.3,0c1.5,0,2.8,1.3,2.8,2.8v2.7
			c-0.3,0-0.5,0-0.7,0c-4.5,0-9.1,0-13.6,0c-7.9-0.1-14.9-6.4-15.9-14.3c0-0.2-0.1-0.3-0.2-0.5C54.7,47.5,54.7,46.3,54.7,45.1
			L54.7,45.1z"/>
		
			<linearGradient id="SVGID_2_" gradientUnits="userSpaceOnUse" x1="23.9707" y1="203.4308" x2="163.4108" y2="37.6608" gradientTransform="matrix(1 0 0 -1 0 162.9434)">
			<stop  offset="0.31" style="stop-color:#243359"/>
			<stop  offset="0.4" style="stop-color:#502D4C"/>
			<stop  offset="0.49" style="stop-color:#792940"/>
			<stop  offset="0.59" style="stop-color:#9C2537"/>
			<stop  offset="0.68" style="stop-color:#B6212F"/>
			<stop  offset="0.78" style="stop-color:#C91F2A"/>
			<stop  offset="0.89" style="stop-color:#D51E27"/>
			<stop  offset="0.99" style="stop-color:#D91E26"/>
		</linearGradient>
		<path class="st1" d="M98.9,64.8L98.9,64.8c-1.7,0-3.1-1.4-3.1-3.1V45.1l-6.5,6.8l-4.5-4.4c3.9-3.9,7.9-7.9,11.9-11.9
			c1.2-1.2,2.8-1.1,4.1-0.1c0.3,0.2,0.5,0.5,0.8,0.7c3.6,3.6,7.1,7.1,10.7,10.6c0.2,0.2,0.5,0.4,0.7,0.6c-1.5,1.5-2.9,2.9-4.3,4.3
			l-6.5-6.5l-0.2,0.1v16.5C101.9,63.4,100.5,64.8,98.9,64.8L98.9,64.8z"/>
	</g>
	<g>
		
			<linearGradient id="SVGID_3_" gradientUnits="userSpaceOnUse" x1="-34.7389" y1="154.0411" x2="104.7111" y2="-11.7289" gradientTransform="matrix(1 0 0 -1 0 162.9434)">
			<stop  offset="0.31" style="stop-color:#243359"/>
			<stop  offset="0.4" style="stop-color:#502D4C"/>
			<stop  offset="0.49" style="stop-color:#792940"/>
			<stop  offset="0.59" style="stop-color:#9C2537"/>
			<stop  offset="0.68" style="stop-color:#B6212F"/>
			<stop  offset="0.78" style="stop-color:#C91F2A"/>
			<stop  offset="0.89" style="stop-color:#D51E27"/>
			<stop  offset="0.99" style="stop-color:#D91E26"/>
		</linearGradient>
		<path class="st2" d="M58.5,75.7l-12.1,36.6h-6.3c-7.4-22.4-8.4-25.9-9.2-30.7c-0.9,4.8-2,8.2-9.5,30.7h-6.3L3,75.7h6.5
			c7,22.1,8.1,25.7,9,30.8c1-5,2.1-8.8,9.3-30.8h6.2c6.9,21.4,8,24.9,9.1,30.3c1-4.7,2.1-8.4,8.9-30.3L58.5,75.7L58.5,75.7z"/>
		
			<linearGradient id="SVGID_4_" gradientUnits="userSpaceOnUse" x1="-12.6914" y1="172.5938" x2="126.7587" y2="6.8238" gradientTransform="matrix(1 0 0 -1 0 162.9434)">
			<stop  offset="0.31" style="stop-color:#243359"/>
			<stop  offset="0.4" style="stop-color:#502D4C"/>
			<stop  offset="0.49" style="stop-color:#792940"/>
			<stop  offset="0.59" style="stop-color:#9C2537"/>
			<stop  offset="0.68" style="stop-color:#B6212F"/>
			<stop  offset="0.78" style="stop-color:#C91F2A"/>
			<stop  offset="0.89" style="stop-color:#D51E27"/>
			<stop  offset="0.99" style="stop-color:#D91E26"/>
		</linearGradient>
		<path class="st3" d="M93.2,95.8H62.1c0.4,7.2,6,11.9,13.1,11.9c6,0,9.9-3.3,11.5-6.8l5.5,0.6c-1.9,6.2-8.4,11.4-17.1,11.4
			c-11,0-19.2-7.5-19.2-19c0-10.7,7.8-19,18.6-19S93.4,82.9,93.2,95.8z M62.1,91.1h24.6C86.5,84.8,81.6,80,74.5,80
			S62.6,84.7,62.1,91.1z"/>
		
			<linearGradient id="SVGID_5_" gradientUnits="userSpaceOnUse" x1="8.7147" y1="190.5941" x2="148.1647" y2="24.8341" gradientTransform="matrix(1 0 0 -1 0 162.9434)">
			<stop  offset="0.31" style="stop-color:#243359"/>
			<stop  offset="0.4" style="stop-color:#502D4C"/>
			<stop  offset="0.49" style="stop-color:#792940"/>
			<stop  offset="0.59" style="stop-color:#9C2537"/>
			<stop  offset="0.68" style="stop-color:#B6212F"/>
			<stop  offset="0.78" style="stop-color:#C91F2A"/>
			<stop  offset="0.89" style="stop-color:#D51E27"/>
			<stop  offset="0.99" style="stop-color:#D91E26"/>
		</linearGradient>
		<path class="st4" d="M135.2,94.1c0,10.9-7.4,18.9-18.6,18.9c-6.4,0-11.8-3.3-14.6-8.7v8h-6.2V59h6.2v25.2
			c2.3-5.5,7.7-9.2,14.9-9.2C128.1,74.9,135.2,83.3,135.2,94.1L135.2,94.1z M129,94c0-7.9-5.7-13.5-13.6-13.5s-13.3,5.9-13.3,13.5
			s5.5,13.4,13.3,13.4S129,101.8,129,94z"/>
	</g>
	<g>
		<path class="st5" d="M184.9,96.8h-28.2c0.5,4.6,4.6,7.8,9.7,7.8c4.3,0,7.5-2.1,8.9-5l8.8,0.9c-2,7-9.2,12.4-17.8,12.4
			c-11.5,0-19.8-7.7-19.8-19.2s7.9-19.5,19.2-19.5S185.3,81.9,184.9,96.8L184.9,96.8z M156.6,89.8h18c-0.3-4.3-3.8-7.4-8.9-7.4
			S157,85.5,156.6,89.8z"/>
		<path class="st5" d="M184,100.2l9.8-0.4c0.3,3.1,3.3,5.2,7.6,5.2c3.3,0,5.6-1.2,5.6-3.3c0-6.2-21.5-2.2-21.5-15.9
			c0-7.3,6.8-11.5,14.9-11.5c9.2,0,15.4,5.4,15.6,11.9l-9.6,0.3c-0.4-2.6-2.5-4.6-6.1-4.6c-2.6,0-5,1.1-5,3.2
			c0,6.1,21.9,1.9,21.9,16.1c0,7.5-6.8,11.7-16.1,11.7C192.3,112.9,184.3,109.2,184,100.2L184,100.2z"/>
		<path class="st5" d="M216.7,93.6c0-11.1,7.7-19.3,20-19.3c4.3,0,8.2,1.2,11.2,3.6v9.7c-2.7-2.6-6.2-4.1-10.2-4.1
			c-6.3,0-10.9,4.4-10.9,10.2s4.6,10.2,10.9,10.2c4.1,0,7.5-1.6,10.2-4.1v9.7c-3,2.3-6.9,3.6-11.2,3.6
			C224.4,113,216.7,104.9,216.7,93.6L216.7,93.6z"/>
		<path class="st5" d="M248.5,93.6c0-11.1,8.4-19.3,20-19.3s20.1,8.2,20.1,19.3s-8.4,19.3-20.1,19.3S248.5,104.9,248.5,93.6z
			 M278.9,93.6c0-6-4.4-10.2-10.4-10.2s-10.2,4.3-10.2,10.2s4.3,10.2,10.2,10.2S278.9,99.5,278.9,93.6z"/>
		<path class="st5" d="M300.1,59v53.3H290V59H300.1z"/>
		<path class="st5" d="M334,75.1h8.5v37.1h-10.2v-6.4c-1.8,4.4-6.7,7.1-12.9,7.1c-11.3,0-18-8.8-18-19.4s7-19.3,18.5-19.3
			c4.8,0,9.6,2.1,12.4,6.3v0.2L334,75.1L334,75.1z M332.3,93.6c0-5.9-4.3-10.2-10.2-10.2s-10.4,4.2-10.4,10.2s4.3,10.3,10.4,10.3
			S332.3,99.6,332.3,93.6z"/>
		<path class="st5" d="M355.6,79.9c1.9-3.4,5.3-5.5,11.1-4.8l-0.1,8.7c-7-0.9-10.9,1.5-10.9,7.3v21.2h-10.1V75.1h8.2L355.6,79.9
			L355.6,79.9z"/>
	</g>
</g>
<g>
	<path class="st6" d="M155.8,126.8c4.1,0,6.7,2.1,7.5,5.5h-2.9c-0.6-2-2.2-3.2-4.6-3.2c-3,0-5.2,2.1-5.2,6.1c0,4,2.2,6.2,5.2,6.2
		c2.4,0,4-1.2,4.6-3.2h2.9c-0.8,3.3-3.5,5.5-7.5,5.5c-4.6,0-7.9-3.3-7.9-8.5S151.1,126.8,155.8,126.8L155.8,126.8z"/>
	<path class="st6" d="M173.3,143.6c-4.6,0-8.1-3.3-8.1-8.5s3.6-8.4,8.3-8.4s8.3,3.3,8.3,8.4C181.7,140.3,178,143.6,173.3,143.6z
		 M173.3,141.2c2.8,0,5.6-1.9,5.6-6.1s-2.7-6.1-5.5-6.1s-5.4,1.9-5.4,6.1S170.5,141.2,173.3,141.2L173.3,141.2z"/>
	<path class="st6" d="M196.5,134.1c0-3.3-1.8-5-4.6-5s-4.7,1.7-4.7,5.2v9h-2.7V127h2.7v2.3c1.1-1.7,3-2.6,5.2-2.6
		c3.8,0,6.7,2.3,6.7,7v9.6h-2.7L196.5,134.1L196.5,134.1z"/>
	<path class="st6" d="M203.6,129.3h-2.1V127h2.1v-4.1h2.7v4.1h4.3v2.2h-4.3v9.6c0,1.6,0.6,2.2,2.3,2.2h2v2.3h-2.4
		c-2.9,0-4.5-1.2-4.5-4.5V129.3L203.6,129.3z"/>
	<path class="st6" d="M215.8,143.3h-2.7V127h2.7v2.6c0.9-1.8,2.7-2.9,5.3-2.9v2.8h-0.7c-2.6,0-4.6,1.2-4.6,4.9V143.3z"/>
	<path class="st6" d="M230.7,143.6c-4.6,0-8.1-3.3-8.1-8.5s3.6-8.4,8.3-8.4s8.3,3.3,8.3,8.4C239.1,140.3,235.3,143.6,230.7,143.6z
		 M230.7,141.2c2.8,0,5.6-1.9,5.6-6.1s-2.7-6.1-5.5-6.1s-5.4,1.9-5.4,6.1S227.9,141.2,230.7,141.2L230.7,141.2z"/>
	<path class="st6" d="M241.9,121.3h2.7v22h-2.7V121.3L241.9,121.3z"/>
	<path class="st6" d="M262.9,143.6c-4.6,0-8.1-3.3-8.1-8.5s3.3-8.4,8.1-8.4s7.8,3.3,7.8,7.8c0,0.6,0,1.1-0.1,1.6h-13
		c0.2,3.3,2.5,5.1,5.3,5.1c2.4,0,4-1.3,4.6-3h2.9C269.6,141.3,267,143.6,262.9,143.6L262.9,143.6z M257.6,134H268
		c0-3.2-2.4-4.9-5.1-4.9C260.2,129.1,258,130.8,257.6,134L257.6,134z"/>
	<path class="st6" d="M285.6,134.1c0-3.3-1.8-5-4.6-5s-4.7,1.7-4.7,5.2v9h-2.7V127h2.7v2.3c1.1-1.7,3-2.6,5.2-2.6
		c3.8,0,6.7,2.3,6.7,7v9.6h-2.7L285.6,134.1L285.6,134.1z"/>
	<path class="st6" d="M299.3,121.3h2.7v22h-2.7V121.3L299.3,121.3z"/>
	<path class="st6" d="M310.2,120.1v2.4l-6.3,3.4v-2L310.2,120.1z M305.9,127h2.7v16.3h-2.7V127L305.9,127z"/>
	<path class="st6" d="M324.5,134.1c0-3.3-1.8-5-4.6-5s-4.7,1.7-4.7,5.2v9h-2.7V127h2.7v2.3c1.1-1.7,3-2.6,5.2-2.6
		c3.8,0,6.7,2.3,6.7,7v9.6h-2.7L324.5,134.1L324.5,134.1z"/>
	<path class="st6" d="M338,143.6c-4.6,0-8.1-3.3-8.1-8.5s3.3-8.4,8.1-8.4s7.8,3.3,7.8,7.8c0,0.6,0,1.1-0.1,1.6h-13
		c0.2,3.3,2.5,5.1,5.3,5.1c2.4,0,4-1.3,4.6-3h2.9C344.7,141.3,342.1,143.6,338,143.6L338,143.6z M332.8,134h10.3
		c0-3.2-2.4-4.9-5.1-4.9C335.3,129.1,333.1,130.8,332.8,134L332.8,134z"/>
	<path class="st6" d="M355.5,126.8c3,0,5.1,1.6,6.1,3.3v-3h2.7v16.3h-2.7v-3c-1,1.8-3.1,3.3-6.1,3.3c-4.4,0-7.7-3.4-7.7-8.5
		S351.1,126.8,355.5,126.8L355.5,126.8z M356,129.1c-3,0-5.5,2.2-5.5,6c0,3.8,2.5,6.1,5.5,6.1s5.5-2.2,5.5-6.1S359,129.1,356,129.1z
		"/>
</g>
</svg>
